<svg id="visual" viewBox="0 0 900 600" width="900" height="600" xmlns="http://www.w3.org/2000/svg" xmlns:xlink="http://www.w3.org/1999/xlink" version="1.1"><g stroke-width="1" stroke-linejoin="bevel"><path d="M479 307L388 320L495 381Z" fill="#333333" stroke="#333333"></path><path d="M388 320L405 410L495 381Z" fill="#8b3426" stroke="#8b3426"></path><path d="M405 410L482 463L495 381Z" fill="#be271c" stroke="#be271c"></path><path d="M278 438L412 469L405 410Z" fill="#9c3123" stroke="#9c3123"></path><path d="M405 410L412 469L482 463Z" fill="#8b3426" stroke="#8b3426"></path><path d="M384 212L332 300L388 320Z" fill="#333333" stroke="#333333"></path><path d="M388 320L332 300L405 410Z" fill="#cf1d18" stroke="#cf1d18"></path><path d="M479 307L384 212L388 320Z" fill="#333333" stroke="#333333"></path><path d="M576 267L498 210L479 307Z" fill="#8b3426" stroke="#8b3426"></path><path d="M479 307L498 210L384 212Z" fill="#7a3529" stroke="#7a3529"></path><path d="M596 415L576 267L495 381Z" fill="#9c3123" stroke="#9c3123"></path><path d="M495 381L576 267L479 307Z" fill="#69362c" stroke="#69362c"></path><path d="M482 463L596 415L495 381Z" fill="#cf1d18" stroke="#cf1d18"></path><path d="M332 300L278 438L405 410Z" fill="#58362e" stroke="#58362e"></path><path d="M482 463L564 488L596 415Z" fill="#e00813" stroke="#e00813"></path><path d="M536 600L564 488L482 463Z" fill="#463531" stroke="#463531"></path><path d="M687 186L586 206L576 267Z" fill="#69362c" stroke="#69362c"></path><path d="M576 267L586 206L498 210Z" fill="#cf1d18" stroke="#cf1d18"></path><path d="M464 91L383 107L384 212Z" fill="#ad2d20" stroke="#ad2d20"></path><path d="M278 438L330 533L412 469Z" fill="#7a3529" stroke="#7a3529"></path><path d="M412 469L536 600L482 463Z" fill="#cf1d18" stroke="#cf1d18"></path><path d="M320 87L266 212L384 212Z" fill="#69362c" stroke="#69362c"></path><path d="M384 212L266 212L332 300Z" fill="#69362c" stroke="#69362c"></path><path d="M332 300L205 390L278 438Z" fill="#ad2d20" stroke="#ad2d20"></path><path d="M161 329L205 390L332 300Z" fill="#7a3529" stroke="#7a3529"></path><path d="M199 527L297 600L330 533Z" fill="#9c3123" stroke="#9c3123"></path><path d="M688 495L678 368L596 415Z" fill="#cf1d18" stroke="#cf1d18"></path><path d="M596 415L678 368L576 267Z" fill="#ad2d20" stroke="#ad2d20"></path><path d="M464 91L384 212L498 210Z" fill="#69362c" stroke="#69362c"></path><path d="M237 134L230 210L266 212Z" fill="#333333" stroke="#333333"></path><path d="M266 212L161 329L332 300Z" fill="#be271c" stroke="#be271c"></path><path d="M297 600L371 600L330 533Z" fill="#333333" stroke="#333333"></path><path d="M330 533L371 600L412 469Z" fill="#be271c" stroke="#be271c"></path><path d="M371 600L536 600L412 469Z" fill="#e00813" stroke="#e00813"></path><path d="M564 488L688 495L596 415Z" fill="#e00813" stroke="#e00813"></path><path d="M605 116L464 91L498 210Z" fill="#8b3426" stroke="#8b3426"></path><path d="M230 210L161 329L266 212Z" fill="#463531" stroke="#463531"></path><path d="M760 411L722 339L678 368Z" fill="#be271c" stroke="#be271c"></path><path d="M678 368L722 339L576 267Z" fill="#cf1d18" stroke="#cf1d18"></path><path d="M199 527L330 533L278 438Z" fill="#58362e" stroke="#58362e"></path><path d="M199 527L278 438L205 390Z" fill="#69362c" stroke="#69362c"></path><path d="M633 600L688 495L564 488Z" fill="#cf1d18" stroke="#cf1d18"></path><path d="M687 186L605 116L586 206Z" fill="#69362c" stroke="#69362c"></path><path d="M586 206L605 116L498 210Z" fill="#463531" stroke="#463531"></path><path d="M411 0L320 87L383 107Z" fill="#9c3123" stroke="#9c3123"></path><path d="M383 107L320 87L384 212Z" fill="#7a3529" stroke="#7a3529"></path><path d="M132 479L199 527L205 390Z" fill="#7a3529" stroke="#7a3529"></path><path d="M320 87L237 134L266 212Z" fill="#333333" stroke="#333333"></path><path d="M230 210L138 268L161 329Z" fill="#463531" stroke="#463531"></path><path d="M722 339L687 186L576 267Z" fill="#58362e" stroke="#58362e"></path><path d="M161 329L138 412L205 390Z" fill="#9c3123" stroke="#9c3123"></path><path d="M536 600L633 600L564 488Z" fill="#be271c" stroke="#be271c"></path><path d="M106 180L138 268L230 210Z" fill="#cf1d18" stroke="#cf1d18"></path><path d="M161 329L0 375L138 412Z" fill="#be271c" stroke="#be271c"></path><path d="M688 495L760 411L678 368Z" fill="#ad2d20" stroke="#ad2d20"></path><path d="M722 339L784 316L687 186Z" fill="#8b3426" stroke="#8b3426"></path><path d="M770 465L760 411L688 495Z" fill="#463531" stroke="#463531"></path><path d="M199 527L218 600L297 600Z" fill="#463531" stroke="#463531"></path><path d="M79 600L218 600L199 527Z" fill="#7a3529" stroke="#7a3529"></path><path d="M79 600L132 479L0 502Z" fill="#463531" stroke="#463531"></path><path d="M138 412L132 479L205 390Z" fill="#ad2d20" stroke="#ad2d20"></path><path d="M760 411L784 316L722 339Z" fill="#e00813" stroke="#e00813"></path><path d="M773 600L770 465L688 495Z" fill="#463531" stroke="#463531"></path><path d="M760 411L900 389L784 316Z" fill="#69362c" stroke="#69362c"></path><path d="M510 0L411 0L464 91Z" fill="#7a3529" stroke="#7a3529"></path><path d="M464 91L411 0L383 107Z" fill="#8b3426" stroke="#8b3426"></path><path d="M320 87L275 0L237 134Z" fill="#8b3426" stroke="#8b3426"></path><path d="M633 600L700 600L688 495Z" fill="#be271c" stroke="#be271c"></path><path d="M605 116L510 0L464 91Z" fill="#e00813" stroke="#e00813"></path><path d="M598 0L510 0L605 116Z" fill="#ad2d20" stroke="#ad2d20"></path><path d="M772 179L718 118L687 186Z" fill="#69362c" stroke="#69362c"></path><path d="M687 186L718 118L605 116Z" fill="#e00813" stroke="#e00813"></path><path d="M784 316L772 179L687 186Z" fill="#58362e" stroke="#58362e"></path><path d="M237 134L106 180L230 210Z" fill="#e00813" stroke="#e00813"></path><path d="M0 327L0 375L161 329Z" fill="#333333" stroke="#333333"></path><path d="M88 81L106 180L237 134Z" fill="#be271c" stroke="#be271c"></path><path d="M721 0L598 0L605 116Z" fill="#be271c" stroke="#be271c"></path><path d="M411 0L275 0L320 87Z" fill="#9c3123" stroke="#9c3123"></path><path d="M700 600L773 600L688 495Z" fill="#ad2d20" stroke="#ad2d20"></path><path d="M770 465L900 389L760 411Z" fill="#ad2d20" stroke="#ad2d20"></path><path d="M275 0L188 0L237 134Z" fill="#58362e" stroke="#58362e"></path><path d="M0 502L132 479L138 412Z" fill="#333333" stroke="#333333"></path><path d="M132 479L79 600L199 527Z" fill="#cf1d18" stroke="#cf1d18"></path><path d="M772 179L785 85L718 118Z" fill="#9c3123" stroke="#9c3123"></path><path d="M718 118L721 0L605 116Z" fill="#333333" stroke="#333333"></path><path d="M900 96L785 85L772 179Z" fill="#7a3529" stroke="#7a3529"></path><path d="M0 327L161 329L138 268Z" fill="#58362e" stroke="#58362e"></path><path d="M0 327L138 268L0 236Z" fill="#58362e" stroke="#58362e"></path><path d="M0 236L138 268L106 180Z" fill="#e00813" stroke="#e00813"></path><path d="M188 0L88 81L237 134Z" fill="#58362e" stroke="#58362e"></path><path d="M785 85L721 0L718 118Z" fill="#cf1d18" stroke="#cf1d18"></path><path d="M0 120L0 236L106 180Z" fill="#8b3426" stroke="#8b3426"></path><path d="M900 474L900 389L770 465Z" fill="#e00813" stroke="#e00813"></path><path d="M784 316L900 262L772 179Z" fill="#69362c" stroke="#69362c"></path><path d="M0 375L0 502L138 412Z" fill="#9c3123" stroke="#9c3123"></path><path d="M900 389L900 262L784 316Z" fill="#69362c" stroke="#69362c"></path><path d="M773 600L900 474L770 465Z" fill="#ad2d20" stroke="#ad2d20"></path><path d="M900 262L900 218L772 179Z" fill="#ad2d20" stroke="#ad2d20"></path><path d="M785 85L830 0L721 0Z" fill="#be271c" stroke="#be271c"></path><path d="M0 0L0 120L88 81Z" fill="#58362e" stroke="#58362e"></path><path d="M88 81L0 120L106 180Z" fill="#58362e" stroke="#58362e"></path><path d="M0 502L0 600L79 600Z" fill="#ad2d20" stroke="#ad2d20"></path><path d="M188 0L68 0L88 81Z" fill="#e00813" stroke="#e00813"></path><path d="M773 600L900 600L900 474Z" fill="#e00813" stroke="#e00813"></path><path d="M900 96L830 0L785 85Z" fill="#e00813" stroke="#e00813"></path><path d="M900 218L900 96L772 179Z" fill="#9c3123" stroke="#9c3123"></path><path d="M68 0L0 0L88 81Z" fill="#be271c" stroke="#be271c"></path><path d="M900 96L900 0L830 0Z" fill="#8b3426" stroke="#8b3426"></path></g></svg>